<?xml version="1.0" encoding="UTF-8" standalone="no"?>
<svg
   viewBox="-0.692 0.5 51.573 55.285"
   width="2385"
   height="2500"
   version="1.1"
   id="svg1"
   sodipodi:docname="lichess-seeklogo.svg"
   inkscape:version="1.3.2 (091e20e, 2023-11-25, custom)"
   xmlns:inkscape="http://www.inkscape.org/namespaces/inkscape"
   xmlns:sodipodi="http://sodipodi.sourceforge.net/DTD/sodipodi-0.dtd"
   xmlns="http://www.w3.org/2000/svg"
   xmlns:svg="http://www.w3.org/2000/svg">
  <defs
     id="defs1" />
  <sodipodi:namedview
     id="namedview1"
     pagecolor="#ffffff"
     bordercolor="#000000"
     borderopacity="0.25"
     inkscape:showpageshadow="2"
     inkscape:pageopacity="0.0"
     inkscape:pagecheckerboard="0"
     inkscape:deskcolor="#d1d1d1"
     inkscape:export-bgcolor="#ffffff00"
     inkscape:zoom="0.17210979"
     inkscape:cx="180.11759"
     inkscape:cy="2681.4279"
     inkscape:window-width="2538"
     inkscape:window-height="1472"
     inkscape:window-x="491"
     inkscape:window-y="44"
     inkscape:window-maximized="0"
     inkscape:current-layer="svg1" />
  <path
     d="M 39.820205,2.7626666 C 36.095754,3.1956236 33.012795,3.6969423 30.022683,5.8534413 4.5571426,4.0946828 -2.0118188,21.440931 -0.56424163,32.65949 2.4037134,54.255553 32.394515,60.025897 42.323923,45.436902 34.469867,53.408283 21.986098,54.502069 12.440741,48.631254 2.8953832,42.76044 -1.8155729,30.616927 3.659265,20.440365 9.1351579,10.263803 18.760702,6.9420486 29.347428,8.8789616 31.911286,7.4102222 34.860249,5.5437423 37.424106,5.5779231 l -1.787314,5.0339029 13.454448,22.13467 c -0.463182,5.856313 -5.759711,6.330702 -5.759711,6.330702 C 42.72591,37.554598 41.60752,36.029926 38.222806,32.825215 34.839147,29.620504 19.79574,22.284058 21.565119,16.03829 c -2.111226,7.216296 10.878985,14.658392 14.813398,18.295024 3.935468,3.635596 5.724893,6.256126 6.114219,6.997746 0,0 9.909362,-2.593599 8.269759,-9.246429 L 38.178492,9.672371 Z"
     stroke="#000000"
     stroke-linejoin="round"
     id="path1"
     style="stroke-width:1.04539" />
</svg>
